<?xml version="1.0" encoding="utf-8"?>
<!-- Generator: Adobe Illustrator 17.0.0, SVG Export Plug-In . SVG Version: 6.00 Build 0)  -->
<!DOCTYPE svg PUBLIC "-//W3C//DTD SVG 1.1//EN" "http://www.w3.org/Graphics/SVG/1.1/DTD/svg11.dtd">
<svg version="1.1" xmlns="http://www.w3.org/2000/svg" xmlns:xlink="http://www.w3.org/1999/xlink" x="0px" y="0px" width="200px"
	 height="200px" viewBox="0 0 200 200" enable-background="new 0 0 200 200" xml:space="preserve">
<g id="circle-stroke">
	<g>
		<path fill="#CCCCCC" d="M100.342,3.057c53.486,0,97,43.514,97,97s-43.514,97-97,97s-97-43.514-97-97S46.856,3.057,100.342,3.057
			 M100.342,0.057c-55.228,0-100,44.772-100,100s44.772,100,100,100s100-44.771,100-100S155.57,0.057,100.342,0.057L100.342,0.057z"
			/>
	</g>
</g>
<g id="taj">
	<g>
		<path d="M106.714,81.099l-10.071,40.868c-1.168,4.816-1.752,8.32-1.752,10.655c0,4.525,2.481,6.131,6.86,6.131
			c2.773,0,6.423-0.584,10.363-1.752v1.605c-5.108,3.357-12.844,7.736-21.31,7.736c-9.049,0-13.72-4.087-13.72-12.115
			c0-2.773,0.584-6.568,1.46-10.216l10.8-42.912H78.253l0.875-3.504h11.093l5.4-21.31l18.391-2.627l-6.422,23.936h15.325
			l-0.876,3.504H106.714z"/>
	</g>
</g>
</svg>
